name ./resultDataOpenSim/trcMotMarkerGrf/sub10/grf-15-03.mot
datacolumns 19
datarows 12
range 0.48400000 0.52800000
endheader

                time	     ground_force_vx	     ground_force_vy	     ground_force_vz	     ground_force_px	     ground_force_py	     ground_force_pz	   l_ground_force_vx	   l_ground_force_vy	   l_ground_force_vz	   l_ground_force_px	   l_ground_force_py	   l_ground_force_pz	     ground_torque_x	     ground_torque_y	     ground_torque_z	   l_ground_torque_x	   l_ground_torque_y	   l_ground_torque_z	
          0.48400000	         44.25665482	        522.59740776	        -14.31391369	         -0.73848036	          0.00000000	         -0.02996581	          0.00000000	          0.00000000	          0.00000000	          0.00000000	          0.00000000	          0.00000000	          0.00000000	          4.63089123	          0.00000000	          0.00000000	          0.00000000	          0.00000000	
          0.48800000	         47.40673120	        531.29137772	        -16.65566315	         -0.73737773	          0.00000000	         -0.02976047	          0.00000000	          0.00000000	          0.00000000	          0.00000000	          0.00000000	          0.00000000	          0.00000000	          4.57072358	          0.00000000	          0.00000000	          0.00000000	          0.00000000	
          0.49200000	         50.56979537	        540.84733732	        -18.80638866	         -0.73622105	          0.00000000	         -0.02957716	          0.00000000	          0.00000000	          0.00000000	          0.00000000	          0.00000000	          0.00000000	          0.00000000	          4.50908404	          0.00000000	          0.00000000	          0.00000000	          0.00000000	
          0.49600000	         53.75948098	        551.37920556	        -20.57218621	         -0.73502140	          0.00000000	         -0.02943520	          0.00000000	          0.00000000	          0.00000000	          0.00000000	          0.00000000	          0.00000000	          0.00000000	          4.46360912	          0.00000000	          0.00000000	          0.00000000	          0.00000000	
          0.50000000	         57.04433167	        562.97644226	        -21.83678864	         -0.73379316	          0.00000000	         -0.02934974	          0.00000000	          0.00000000	          0.00000000	          0.00000000	          0.00000000	          0.00000000	          0.00000000	          4.44544352	          0.00000000	          0.00000000	          0.00000000	          0.00000000	
          0.50400000	         60.52160787	        575.68987324	        -22.58944246	         -0.73254505	          0.00000000	         -0.02932977	          0.00000000	          0.00000000	          0.00000000	          0.00000000	          0.00000000	          0.00000000	          0.00000000	          4.45593365	          0.00000000	          0.00000000	          0.00000000	          0.00000000	
          0.50800000	         64.26623970	        589.53677555	        -22.92436125	         -0.73128696	          0.00000000	         -0.02936221	          0.00000000	          0.00000000	          0.00000000	          0.00000000	          0.00000000	          0.00000000	          0.00000000	          4.48552864	          0.00000000	          0.00000000	          0.00000000	          0.00000000	
          0.51200000	         68.28058423	        604.52138814	        -23.00582549	         -0.73004316	          0.00000000	         -0.02943057	          0.00000000	          0.00000000	          0.00000000	          0.00000000	          0.00000000	          0.00000000	          0.00000000	          4.51534862	          0.00000000	          0.00000000	          0.00000000	          0.00000000	
          0.51600000	         72.49610366	        620.58855875	        -23.01686674	         -0.72886231	          0.00000000	         -0.02952256	          0.00000000	          0.00000000	          0.00000000	          0.00000000	          0.00000000	          0.00000000	          0.00000000	          4.52105817	          0.00000000	          0.00000000	          0.00000000	          0.00000000	
          0.52000000	         76.80918663	        637.51620120	        -23.12178594	         -0.72773843	          0.00000000	         -0.02964512	          0.00000000	          0.00000000	          0.00000000	          0.00000000	          0.00000000	          0.00000000	          0.00000000	          4.47811669	          0.00000000	          0.00000000	          0.00000000	          0.00000000	
          0.52400000	         81.09983125	        654.92847483	        -23.44370296	         -0.72656543	          0.00000000	         -0.02981902	          0.00000000	          0.00000000	          0.00000000	          0.00000000	          0.00000000	          0.00000000	          0.00000000	          4.36730990	          0.00000000	          0.00000000	          0.00000000	          0.00000000	
          0.52800000	         85.25789921	        672.49808769	        -24.02426248	         -0.72523379	          0.00000000	         -0.03006244	          0.00000000	          0.00000000	          0.00000000	          0.00000000	          0.00000000	          0.00000000	          0.00000000	          4.17946280	          0.00000000	          0.00000000	          0.00000000	          0.00000000	
